<svg width="73.781" height="65.918" viewBox="0 0 73.781 65.918" xmlns="http://www.w3.org/2000/svg"><g id="svgGroup" stroke-linecap="round" fill-rule="evenodd" font-size="9pt" stroke-width="0" fill="#FF5B4D"><path d="M 31.202 27.588 L 37.891 27.588 A 132.505 132.505 0 0 0 37.844 23.932 Q 37.796 22.219 37.701 20.748 A 56.883 56.883 0 0 0 37.525 18.604 Q 37.163 15.079 36.395 12.986 A 11.276 11.276 0 0 0 36.377 12.94 A 9.978 9.978 0 0 0 35.865 11.778 Q 35.572 11.22 35.237 10.796 A 3.973 3.973 0 0 0 34.424 10.01 A 4.471 4.471 0 0 0 32.487 9.246 A 5.904 5.904 0 0 0 31.592 9.18 A 5.048 5.048 0 0 0 30.037 9.41 A 4.211 4.211 0 0 0 28.492 10.303 A 6.169 6.169 0 0 0 27.432 11.576 Q 26.892 12.422 26.49 13.55 A 17.48 17.48 0 0 0 25.911 15.577 Q 25.674 16.632 25.514 17.843 A 32.486 32.486 0 0 0 25.415 18.677 Q 25.119 21.481 25.099 24.986 A 89.493 89.493 0 0 0 25.098 25.489 A 130.068 130.068 0 0 1 22.943 25.47 A 151.119 151.119 0 0 1 20.679 25.415 A 47.581 47.581 0 0 1 16.089 25.049 A 27.359 27.359 0 0 1 12.577 24.368 A 24.407 24.407 0 0 1 11.792 24.146 Q 9.766 23.535 8.203 22.486 Q 6.641 21.436 5.713 19.824 Q 4.786 18.213 4.786 15.918 A 11.903 11.903 0 0 1 6.47 9.815 A 13.061 13.061 0 0 1 8.937 6.798 Q 10.118 5.712 11.646 4.761 Q 15.137 2.588 20.508 1.294 A 42.903 42.903 0 0 1 25.594 0.41 Q 29.123 0 33.301 0 A 71.624 71.624 0 0 1 39.928 0.29 Q 43.273 0.602 46.163 1.247 A 38.528 38.528 0 0 1 48.194 1.758 A 31.009 31.009 0 0 1 53.483 3.752 A 22.891 22.891 0 0 1 58.472 7.031 A 20.847 20.847 0 0 1 64.244 15.397 A 24.581 24.581 0 0 1 64.429 15.894 Q 66.237 20.906 66.35 27.528 A 52.163 52.163 0 0 1 66.358 28.418 L 66.358 45.703 A 12.698 12.698 0 0 0 66.413 46.925 Q 66.531 48.149 66.907 48.948 A 3.745 3.745 0 0 0 66.919 48.975 Q 67.418 50.016 68.11 50.614 A 3.523 3.523 0 0 0 68.286 50.757 A 4.884 4.884 0 0 0 70.069 51.612 A 27.555 27.555 0 0 1 71.003 51.862 A 21.356 21.356 0 0 1 71.851 52.124 A 4.725 4.725 0 0 1 72.638 52.465 A 3.743 3.743 0 0 1 73.218 52.857 A 1.399 1.399 0 0 1 73.635 53.461 Q 73.723 53.698 73.758 53.993 A 3.469 3.469 0 0 1 73.78 54.395 Q 73.78 59.278 69.41 61.988 A 15.104 15.104 0 0 1 65.742 63.585 Q 62.004 64.698 56.592 64.698 A 45.741 45.741 0 0 1 51.636 64.429 Q 49.17 64.16 46.949 63.33 A 13.778 13.778 0 0 1 42.871 60.938 A 11.746 11.746 0 0 1 40.857 58.721 A 15.599 15.599 0 0 1 39.698 56.787 A 9.774 9.774 0 0 1 37.382 60.073 A 11.983 11.983 0 0 1 36.548 60.791 A 20.527 20.527 0 0 1 32.464 63.275 A 23.423 23.423 0 0 1 31.617 63.648 A 28.524 28.524 0 0 1 25.806 65.357 A 34.007 34.007 0 0 1 21.782 65.861 A 28.938 28.938 0 0 1 19.971 65.918 Q 15.039 65.918 11.328 64.746 A 19.848 19.848 0 0 1 7.765 63.245 A 15.74 15.74 0 0 1 5.078 61.402 A 13.776 13.776 0 0 1 1.27 56.201 A 16.292 16.292 0 0 1 0.127 51.72 A 20.378 20.378 0 0 1 0 49.414 Q 0 44.971 1.49 40.991 A 16.077 16.077 0 0 1 5.447 35.038 A 19.611 19.611 0 0 1 6.568 34.033 Q 10.157 31.055 16.162 29.322 A 39.149 39.149 0 0 1 21.316 28.232 Q 24.02 27.835 27.152 27.682 A 83.581 83.581 0 0 1 31.202 27.588 Z M 35.068 54.42 A 3.901 3.901 0 0 0 35.669 54.175 Q 36.67 53.662 37.207 52.71 A 5.235 5.235 0 0 0 37.652 51.65 Q 37.805 51.146 37.889 50.56 A 9.153 9.153 0 0 0 37.915 50.366 Q 38.075 49.065 38.086 47.442 A 35.435 35.435 0 0 0 38.086 47.217 Q 38.086 45.703 38.037 43.36 A 5072.336 5072.336 0 0 0 37.94 38.77 A 269.57 269.57 0 0 1 37.821 34.705 A 299.623 299.623 0 0 1 37.793 33.301 A 63.5 63.5 0 0 0 37.128 33.209 A 53.342 53.342 0 0 0 36.499 33.13 A 10.037 10.037 0 0 0 35.303 33.057 A 10.269 10.269 0 0 0 33.447 33.216 Q 32.346 33.418 31.452 33.879 A 6.126 6.126 0 0 0 31.128 34.058 A 7.543 7.543 0 0 0 28.418 36.841 A 11.342 11.342 0 0 0 27.426 39.148 A 14.915 14.915 0 0 0 26.978 41.04 A 28.595 28.595 0 0 0 26.624 44.182 A 35.532 35.532 0 0 0 26.563 46.289 A 26.875 26.875 0 0 0 26.664 48.658 A 23.238 23.238 0 0 0 26.758 49.536 A 7.721 7.721 0 0 0 27.096 51.04 A 6.152 6.152 0 0 0 27.637 52.222 A 4.65 4.65 0 0 0 29.301 53.856 A 5.689 5.689 0 0 0 29.615 54.029 A 5.347 5.347 0 0 0 30.794 54.452 Q 31.773 54.688 33.057 54.688 Q 34.222 54.688 35.068 54.42 Z" vector-effect="non-scaling-stroke"/></g></svg>